<svg xmlns="http://www.w3.org/2000/svg" viewBox="0 0 160 100" shape-rendering="crispEdges">
<defs><linearGradient id="s" x1="0" y1="0" x2="0" y2="1"><stop offset="0" stop-color="#8cc4ff"/><stop offset="1" stop-color="#f1e7c9"/></linearGradient></defs>
<rect width="160" height="100" fill="url(#s)"/><rect x="128" y="10" width="14" height="14" fill="#fff4b0" opacity=".9"/><rect x="14" y="8" width="16" height="6" fill="#fff" opacity=".55"/><rect x="92" y="11" width="32" height="6" fill="#fff" opacity=".55"/><rect x="78" y="14" width="32" height="6" fill="#fff" opacity=".55"/><rect x="0" y="60" width="8" height="8" fill="#e3d3a0"/><rect x="0" y="68" width="8" height="16" fill="#d6c38a"/><rect x="0" y="84" width="8" height="72" fill="#c9b27a"/><rect x="0" y="156" width="8" height="100" fill="#c9b27a"/><rect x="5" y="62" width="2" height="2" fill="#000" opacity=".12"/><rect x="5" y="62" width="2" height="2" fill="#000" opacity=".12"/><rect x="8" y="52" width="8" height="8" fill="#e3d3a0"/><rect x="8" y="60" width="8" height="16" fill="#d6c38a"/><rect x="8" y="76" width="8" height="72" fill="#c9b27a"/><rect x="8" y="148" width="8" height="100" fill="#c9b27a"/><rect x="10" y="54" width="2" height="2" fill="#000" opacity=".12"/><rect x="9" y="54" width="2" height="2" fill="#000" opacity=".12"/><rect x="16" y="60" width="8" height="8" fill="#e3d3a0"/><rect x="16" y="68" width="8" height="16" fill="#d6c38a"/><rect x="16" y="84" width="8" height="72" fill="#c9b27a"/><rect x="16" y="156" width="8" height="100" fill="#c9b27a"/><rect x="19" y="62" width="2" height="2" fill="#000" opacity=".12"/><rect x="18" y="65" width="2" height="2" fill="#000" opacity=".12"/><rect x="24" y="52" width="8" height="8" fill="#e3d3a0"/><rect x="24" y="60" width="8" height="16" fill="#d6c38a"/><rect x="24" y="76" width="8" height="72" fill="#c9b27a"/><rect x="24" y="148" width="8" height="100" fill="#c9b27a"/><rect x="29" y="55" width="2" height="2" fill="#000" opacity=".12"/><rect x="29" y="58" width="2" height="2" fill="#000" opacity=".12"/><rect x="32" y="52" width="8" height="8" fill="#e3d3a0"/><rect x="32" y="60" width="8" height="16" fill="#d6c38a"/><rect x="32" y="76" width="8" height="72" fill="#c9b27a"/><rect x="32" y="148" width="8" height="100" fill="#c9b27a"/><rect x="37" y="54" width="2" height="2" fill="#000" opacity=".12"/><rect x="36" y="56" width="2" height="2" fill="#000" opacity=".12"/><rect x="40" y="52" width="8" height="8" fill="#e3d3a0"/><rect x="40" y="60" width="8" height="16" fill="#d6c38a"/><rect x="40" y="76" width="8" height="72" fill="#c9b27a"/><rect x="40" y="148" width="8" height="100" fill="#c9b27a"/><rect x="46" y="57" width="2" height="2" fill="#000" opacity=".12"/><rect x="43" y="57" width="2" height="2" fill="#000" opacity=".12"/><rect x="48" y="52" width="8" height="8" fill="#e3d3a0"/><rect x="48" y="60" width="8" height="16" fill="#d6c38a"/><rect x="48" y="76" width="8" height="72" fill="#c9b27a"/><rect x="48" y="148" width="8" height="100" fill="#c9b27a"/><rect x="51" y="55" width="2" height="2" fill="#000" opacity=".12"/><rect x="52" y="54" width="2" height="2" fill="#000" opacity=".12"/><rect x="56" y="52" width="8" height="8" fill="#e3d3a0"/><rect x="56" y="60" width="8" height="16" fill="#d6c38a"/><rect x="56" y="76" width="8" height="72" fill="#c9b27a"/><rect x="56" y="148" width="8" height="100" fill="#c9b27a"/><rect x="60" y="58" width="2" height="2" fill="#000" opacity=".12"/><rect x="62" y="56" width="2" height="2" fill="#000" opacity=".12"/><rect x="64" y="52" width="8" height="8" fill="#e3d3a0"/><rect x="64" y="60" width="8" height="16" fill="#d6c38a"/><rect x="64" y="76" width="8" height="72" fill="#c9b27a"/><rect x="64" y="148" width="8" height="100" fill="#c9b27a"/><rect x="70" y="57" width="2" height="2" fill="#000" opacity=".12"/><rect x="66" y="56" width="2" height="2" fill="#000" opacity=".12"/><rect x="72" y="52" width="8" height="8" fill="#e3d3a0"/><rect x="72" y="60" width="8" height="16" fill="#d6c38a"/><rect x="72" y="76" width="8" height="72" fill="#c9b27a"/><rect x="72" y="148" width="8" height="100" fill="#c9b27a"/><rect x="75" y="56" width="2" height="2" fill="#000" opacity=".12"/><rect x="77" y="57" width="2" height="2" fill="#000" opacity=".12"/><rect x="80" y="52" width="8" height="8" fill="#e3d3a0"/><rect x="80" y="60" width="8" height="16" fill="#d6c38a"/><rect x="80" y="76" width="8" height="72" fill="#c9b27a"/><rect x="80" y="148" width="8" height="100" fill="#c9b27a"/><rect x="83" y="58" width="2" height="2" fill="#000" opacity=".12"/><rect x="84" y="56" width="2" height="2" fill="#000" opacity=".12"/><rect x="88" y="52" width="8" height="8" fill="#e3d3a0"/><rect x="88" y="60" width="8" height="16" fill="#d6c38a"/><rect x="88" y="76" width="8" height="72" fill="#c9b27a"/><rect x="88" y="148" width="8" height="100" fill="#c9b27a"/><rect x="91" y="57" width="2" height="2" fill="#000" opacity=".12"/><rect x="94" y="57" width="2" height="2" fill="#000" opacity=".12"/><rect x="96" y="52" width="8" height="8" fill="#e3d3a0"/><rect x="96" y="60" width="8" height="16" fill="#d6c38a"/><rect x="96" y="76" width="8" height="72" fill="#c9b27a"/><rect x="96" y="148" width="8" height="100" fill="#c9b27a"/><rect x="102" y="56" width="2" height="2" fill="#000" opacity=".12"/><rect x="100" y="58" width="2" height="2" fill="#000" opacity=".12"/><rect x="104" y="60" width="8" height="8" fill="#e3d3a0"/><rect x="104" y="68" width="8" height="16" fill="#d6c38a"/><rect x="104" y="84" width="8" height="72" fill="#c9b27a"/><rect x="104" y="156" width="8" height="100" fill="#c9b27a"/><rect x="106" y="63" width="2" height="2" fill="#000" opacity=".12"/><rect x="110" y="62" width="2" height="2" fill="#000" opacity=".12"/><rect x="112" y="68" width="8" height="8" fill="#e3d3a0"/><rect x="112" y="76" width="8" height="16" fill="#d6c38a"/><rect x="112" y="92" width="8" height="72" fill="#c9b27a"/><rect x="112" y="164" width="8" height="100" fill="#c9b27a"/><rect x="117" y="71" width="2" height="2" fill="#000" opacity=".12"/><rect x="116" y="71" width="2" height="2" fill="#000" opacity=".12"/><rect x="120" y="68" width="8" height="8" fill="#e3d3a0"/><rect x="120" y="76" width="8" height="16" fill="#d6c38a"/><rect x="120" y="92" width="8" height="72" fill="#c9b27a"/><rect x="120" y="164" width="8" height="100" fill="#c9b27a"/><rect x="123" y="74" width="2" height="2" fill="#000" opacity=".12"/><rect x="125" y="73" width="2" height="2" fill="#000" opacity=".12"/><rect x="128" y="68" width="8" height="8" fill="#e3d3a0"/><rect x="128" y="76" width="8" height="16" fill="#d6c38a"/><rect x="128" y="92" width="8" height="72" fill="#c9b27a"/><rect x="128" y="164" width="8" height="100" fill="#c9b27a"/><rect x="133" y="73" width="2" height="2" fill="#000" opacity=".12"/><rect x="134" y="73" width="2" height="2" fill="#000" opacity=".12"/><rect x="136" y="68" width="8" height="8" fill="#e3d3a0"/><rect x="136" y="76" width="8" height="16" fill="#d6c38a"/><rect x="136" y="92" width="8" height="72" fill="#c9b27a"/><rect x="136" y="164" width="8" height="100" fill="#c9b27a"/><rect x="141" y="72" width="2" height="2" fill="#000" opacity=".12"/><rect x="139" y="74" width="2" height="2" fill="#000" opacity=".12"/><rect x="144" y="68" width="8" height="8" fill="#e3d3a0"/><rect x="144" y="76" width="8" height="16" fill="#d6c38a"/><rect x="144" y="92" width="8" height="72" fill="#c9b27a"/><rect x="144" y="164" width="8" height="100" fill="#c9b27a"/><rect x="146" y="72" width="2" height="2" fill="#000" opacity=".12"/><rect x="149" y="71" width="2" height="2" fill="#000" opacity=".12"/><rect x="152" y="68" width="8" height="8" fill="#e3d3a0"/><rect x="152" y="76" width="8" height="16" fill="#d6c38a"/><rect x="152" y="92" width="8" height="72" fill="#c9b27a"/><rect x="152" y="164" width="8" height="100" fill="#c9b27a"/><rect x="158" y="73" width="2" height="2" fill="#000" opacity=".12"/><rect x="153" y="71" width="2" height="2" fill="#000" opacity=".12"/><rect x="9" y="36" width="6" height="16" fill="#4f8a3a"/><rect x="10" y="36" width="1" height="16" fill="#6fae4f"/><rect x="57" y="36" width="6" height="16" fill="#4f8a3a"/><rect x="58" y="36" width="1" height="16" fill="#6fae4f"/><rect x="33" y="28" width="6" height="24" fill="#4f8a3a"/><rect x="34" y="28" width="1" height="24" fill="#6fae4f"/></svg>